<?xml version="1.0" standalone="no"?>
<!DOCTYPE svg PUBLIC "-//W3C//DTD SVG 20010904//EN"
 "http://www.w3.org/TR/2001/REC-SVG-20010904/DTD/svg10.dtd">
<svg version="1.0" xmlns="http://www.w3.org/2000/svg"
 width="597.000000pt" height="597.000000pt" viewBox="0 0 597.000000 597.000000"
 preserveAspectRatio="xMidYMid meet">
<metadata>
Created by potrace 1.11, written by Peter Selinger 2001-2013
</metadata>
<g transform="translate(0.000000,597.000000) scale(0.100000,-0.100000)"
fill="#000000" stroke="none">
<path d="M1983 5957 c1 -5 -25 -11 -58 -13 -32 -3 -64 -9 -69 -14 -6 -6 -15
-10 -20 -10 -6 0 -4 5 4 10 9 6 10 10 3 10 -6 0 -15 -4 -18 -10 -3 -5 -17 -10
-31 -10 -13 0 -24 -4 -24 -10 0 -5 -24 -10 -52 -10 -38 0 -49 -3 -38 -10 12
-7 8 -10 -15 -10 -48 0 -79 -11 -63 -22 10 -7 8 -8 -7 -7 -42 3 -56 -1 -49
-13 5 -8 0 -7 -11 2 -11 9 -16 10 -11 3 5 -9 -1 -13 -22 -13 -17 0 -32 -6 -35
-15 -4 -8 -15 -12 -26 -10 -15 3 -18 0 -14 -12 5 -12 1 -14 -14 -9 -12 4 -25
1 -33 -9 -7 -8 -19 -15 -26 -15 -8 0 -14 -5 -14 -11 0 -5 -4 -8 -9 -4 -5 3
-15 -1 -23 -8 -7 -7 -28 -20 -45 -28 -18 -7 -33 -17 -33 -22 0 -4 -11 -12 -25
-17 -14 -5 -25 -14 -25 -20 0 -6 -4 -9 -9 -5 -5 3 -12 1 -16 -5 -4 -6 -11 -7
-17 -4 -7 4 -8 2 -4 -4 4 -7 1 -12 -9 -12 -9 0 -13 -4 -10 -10 3 -5 -1 -10 -9
-10 -9 0 -16 -4 -16 -10 0 -5 -7 -10 -15 -10 -8 0 -15 -7 -15 -16 0 -8 -4 -13
-9 -10 -5 3 -11 -1 -15 -9 -3 -8 -13 -15 -21 -15 -9 0 -13 -4 -10 -10 3 -5 -1
-10 -10 -10 -8 0 -18 -7 -21 -15 -4 -8 -14 -15 -23 -15 -14 0 -14 -2 -1 -10
13 -8 13 -10 -1 -10 -9 0 -24 -11 -35 -24 -10 -14 -21 -23 -26 -20 -4 3 -8 -2
-8 -10 0 -9 -8 -16 -17 -17 -11 0 -13 -3 -5 -6 13 -5 17 -24 4 -22 -20 3 -32
-2 -29 -13 1 -7 -4 -12 -10 -11 -7 2 -13 -6 -13 -17 0 -11 -7 -20 -16 -20 -8
0 -12 -4 -9 -10 3 -5 2 -10 -3 -10 -12 0 -45 -50 -45 -67 0 -6 -5 -11 -11 -10
-6 1 -10 -6 -8 -17 2 -10 -1 -15 -6 -12 -6 3 -15 -8 -21 -24 -5 -17 -15 -30
-22 -30 -6 0 -9 -7 -5 -15 3 -8 0 -14 -6 -12 -7 1 -12 -3 -13 -10 0 -7 -6 -18
-12 -24 -7 -7 -13 -24 -13 -37 0 -13 -3 -21 -8 -18 -4 2 -12 -7 -19 -20 -6
-13 -8 -22 -4 -19 4 2 8 -2 8 -9 0 -8 -7 -12 -14 -9 -8 3 -13 2 -12 -3 4 -21
-2 -45 -9 -40 -4 2 -9 -3 -10 -12 -5 -42 -10 -56 -20 -60 -7 -2 -9 -8 -6 -13
8 -14 -5 -61 -15 -55 -4 3 -7 -5 -6 -17 1 -12 -4 -32 -11 -44 -7 -11 -14 -38
-16 -58 -1 -20 -9 -41 -18 -46 -13 -9 -13 -10 1 -6 9 3 16 -1 16 -9 0 -7 -4
-11 -9 -8 -9 6 -9 6 -13 -64 -2 -29 -9 -60 -16 -69 -12 -15 -12 -16 3 -10 23
8 23 -2 1 -20 -11 -8 -12 -11 -3 -7 13 7 13 5 1 -9 -12 -16 -8 -22 12 -18 5 1
6 -3 2 -9 -3 -6 -10 -8 -15 -5 -5 3 -8 -4 -7 -15 1 -14 6 -19 17 -15 11 4 11
2 -2 -8 -14 -11 -15 -16 -5 -27 7 -7 7 -10 1 -7 -6 4 -10 -12 -10 -43 -1 -33
3 -47 10 -43 7 4 7 1 -1 -8 -12 -15 -12 -77 0 -96 4 -7 3 -14 -3 -18 -5 -3
-10 -11 -10 -16 0 -6 5 -7 12 -3 7 5 8 3 2 -7 -11 -18 -14 -91 -4 -104 11 -14
10 -28 -2 -42 -8 -9 -7 -13 3 -13 9 0 10 -3 4 -8 -15 -10 -16 -94 -2 -85 8 4
7 1 -1 -9 -13 -16 -12 -44 2 -67 6 -10 5 -12 -2 -7 -16 10 -15 -7 1 -23 10
-11 9 -13 -1 -7 -14 8 -12 -19 2 -43 6 -10 5 -12 -2 -7 -16 10 -15 -7 0 -23
11 -11 10 -13 0 -7 -14 8 -12 -19 2 -43 6 -9 5 -12 -2 -7 -7 4 -10 -2 -9 -14
1 -14 6 -19 17 -15 11 4 11 2 -2 -8 -14 -11 -15 -16 -5 -27 7 -7 7 -10 1 -7
-6 4 -10 -12 -10 -43 -1 -33 3 -47 10 -43 7 4 7 1 -1 -8 -12 -15 -12 -77 0
-96 4 -7 3 -14 -3 -18 -5 -3 -10 -11 -10 -16 0 -6 4 -8 8 -5 5 3 9 -1 9 -9 0
-8 -4 -12 -9 -9 -13 8 -10 -10 5 -25 10 -11 9 -13 -1 -7 -14 8 -12 -19 2 -43
6 -10 5 -12 -2 -7 -16 10 -15 -7 0 -23 8 -8 8 -11 2 -8 -9 5 -12 -387 -12
-1548 0 -904 4 -1555 9 -1555 8 0 13 29 10 58 -1 6 6 12 16 12 14 0 15 2 4 9
-9 6 -10 10 -2 12 6 2 12 18 14 36 1 17 4 30 6 28 9 -10 38 42 36 63 -1 14 2
21 9 19 7 -3 13 6 14 22 1 14 7 27 12 29 6 2 10 10 10 18 0 8 4 14 10 14 5 0
12 11 16 25 3 14 10 25 15 25 5 0 9 9 9 20 0 10 8 24 18 29 9 6 14 11 10 11
-5 0 0 8 10 18 9 11 22 16 27 13 6 -2 3 4 -5 14 -9 11 -10 16 -2 11 7 -4 12
-1 12 8 0 9 7 16 15 16 8 0 14 6 12 13 -1 6 4 11 12 9 9 -2 11 3 7 14 -5 12
-2 15 10 10 12 -4 15 -2 10 9 -3 8 -1 15 5 15 6 0 7 4 4 10 -3 5 -1 10 5 10
14 0 70 57 62 64 -3 3 2 6 11 6 9 0 17 5 17 11 0 5 5 7 10 4 6 -4 9 -3 8 2 -4
12 40 53 57 53 8 0 15 7 15 16 0 8 4 13 8 10 5 -3 15 6 22 19 7 14 22 25 32
25 11 0 16 5 13 10 -6 9 16 15 39 11 5 -1 6 5 2 14 -4 11 -2 15 6 12 7 -2 18
2 23 9 6 7 17 14 25 16 8 2 21 9 28 16 8 7 19 9 25 5 9 -5 9 -3 0 8 -9 12 -6
14 20 15 17 1 33 6 35 13 2 6 10 11 18 11 10 0 12 5 8 13 -5 7 0 6 11 -3 11
-9 16 -10 11 -2 -4 7 -1 12 8 12 9 0 16 5 16 11 0 5 5 7 10 4 6 -3 10 -1 10 5
0 6 11 8 26 6 15 -3 24 -2 20 1 -10 10 63 43 95 43 15 0 29 6 32 14 3 8 17 13
36 11 17 -1 34 2 38 8 4 6 1 7 -8 2 -8 -5 -11 -4 -6 1 5 5 17 10 28 10 48 3
50 4 43 17 -5 8 -2 8 9 -2 11 -9 17 -10 17 -2 0 6 17 11 40 11 25 0 40 5 40
13 0 8 4 7 10 -3 6 -10 10 -11 10 -2 0 8 15 12 43 12 24 0 49 6 56 13 11 10
13 10 7 -1 -4 -6 -3 -12 3 -12 5 0 11 5 13 12 2 6 28 12 60 13 48 2 56 0 51
-14 -4 -13 -3 -13 5 -2 6 8 22 15 35 17 20 2 25 -1 20 -14 -4 -14 -3 -14 5 -3
6 8 22 15 35 17 20 2 25 -1 20 -14 -4 -14 -3 -14 5 -3 6 8 22 15 35 17 20 2
25 -1 20 -14 -4 -14 -3 -14 5 -3 12 17 85 25 75 8 -4 -6 -1 -7 8 -2 21 14 60
15 53 3 -5 -7 -2 -8 7 -3 21 14 60 15 53 3 -5 -7 -2 -8 7 -3 21 14 60 15 53 3
-5 -7 -2 -8 7 -3 21 14 60 15 53 3 -5 -7 -2 -8 7 -3 22 14 60 15 53 2 -5 -8
-3 -8 7 1 16 15 33 16 23 0 -4 -7 -3 -8 5 -4 22 14 83 17 75 5 -4 -8 -3 -9 5
-5 22 14 83 17 75 5 -4 -8 -3 -9 5 -5 22 14 83 17 75 5 -5 -8 -3 -9 6 -4 20
12 111 14 103 2 -4 -6 -1 -7 8 -2 21 14 60 15 53 3 -5 -7 -2 -8 7 -3 21 14 60
15 53 3 -5 -7 -2 -8 7 -3 21 14 60 15 53 3 -5 -7 -2 -8 7 -3 21 14 60 15 53 3
-5 -7 -2 -8 7 -3 21 14 60 15 53 3 -5 -7 -2 -8 7 -3 21 14 60 15 53 3 -5 -7
-2 -8 7 -3 21 14 60 15 53 3 -5 -7 -2 -8 7 -3 22 14 60 15 52 2 -5 -9 -3 -9 8
0 20 16 31 17 40 1 6 -8 9 -9 9 -1 0 12 17 12 37 0 6 -4 14 -3 18 3 3 5 11 10
16 10 6 0 7 -5 3 -12 -4 -7 -3 -8 5 -4 22 14 83 17 75 5 -4 -8 -3 -9 5 -5 22
14 83 17 75 5 -4 -8 -3 -9 5 -5 22 14 83 17 75 5 -4 -8 -3 -9 5 -5 21 13 72
16 65 4 -5 -7 -2 -8 7 -3 7 5 24 10 37 11 21 2 22 1 10 -14 -12 -15 -11 -16 5
-3 10 8 29 16 42 17 18 2 23 -1 18 -14 -4 -14 -3 -14 5 -3 6 8 22 15 35 17 20
2 25 -1 20 -14 -4 -14 -3 -14 5 -3 6 8 22 15 35 17 20 2 25 -1 20 -14 -4 -14
-3 -14 5 -3 12 17 85 25 75 8 -4 -6 -1 -7 8 -2 21 14 60 15 53 3 -5 -7 -2 -8
7 -3 21 14 60 15 53 3 -5 -7 -2 -8 7 -3 21 14 60 15 53 3 -5 -7 -2 -8 7 -3 21
14 60 15 53 3 -5 -7 -2 -8 7 -3 22 14 60 15 53 2 -5 -8 -3 -8 7 0 16 16 33 17
23 1 -4 -7 -3 -8 5 -4 22 14 83 17 75 5 -4 -8 -3 -9 5 -5 22 14 83 17 75 5 -4
-8 -3 -9 5 -5 22 14 83 17 75 5 -5 -8 -3 -9 6 -4 20 12 111 14 103 2 -4 -6 -1
-7 8 -2 21 14 60 15 53 3 -5 -7 -2 -8 7 -3 21 14 60 15 53 3 -5 -7 -2 -8 7 -3
21 14 60 15 53 3 -5 -7 -2 -8 7 -3 21 14 60 15 53 3 -5 -7 -2 -8 7 -3 21 14
60 15 53 3 -5 -7 -2 -8 7 -3 21 14 60 15 53 3 -5 -7 -2 -8 7 -3 21 14 60 15
53 3 -5 -7 -2 -8 7 -3 21 14 60 15 53 3 -5 -7 -2 -8 7 -2 21 13 39 14 39 1 0
-8 3 -8 8 -2 8 12 22 13 39 2 6 -4 14 -3 18 3 3 5 11 10 16 10 6 0 7 -5 3 -12
-5 -7 -3 -8 6 -3 11 7 21 9 68 14 9 1 12 171 12 814 0 637 -3 816 -12 826 -9
10 -9 12 -1 7 16 -9 15 193 -1 213 -8 11 -8 13 2 7 8 -5 12 0 12 16 0 13 -6
30 -12 37 -10 11 -10 13 0 7 8 -5 12 0 12 14 0 14 -4 19 -12 14 -10 -6 -10 -5
-1 7 15 18 14 79 -1 98 -8 11 -8 13 2 7 8 -5 12 0 12 16 0 13 -6 30 -12 37 -9
10 -9 12 -1 7 16 -9 15 133 -1 153 -8 11 -8 13 1 8 16 -10 15 192 -1 212 -8
11 -8 13 2 7 8 -5 12 0 12 16 0 13 -6 30 -12 37 -10 11 -10 13 0 7 8 -5 12 0
12 14 0 14 -4 19 -12 14 -10 -6 -10 -5 -1 7 15 18 14 79 -1 98 -8 11 -8 13 2
7 8 -5 12 0 12 16 0 13 -6 30 -12 37 -9 10 -9 12 -1 7 16 -9 15 133 -1 153 -8
11 -8 13 1 8 16 -10 15 192 -1 212 -8 11 -8 13 2 7 8 -5 12 0 12 16 0 13 -6
30 -12 37 -10 11 -10 13 0 7 8 -5 12 0 12 14 0 14 -4 19 -12 14 -10 -6 -10 -5
-1 7 15 18 14 79 -1 98 -8 11 -8 13 2 7 8 -5 12 0 12 16 0 13 -6 30 -12 37 -9
10 -9 12 -1 7 16 -9 15 133 -1 153 -8 11 -8 13 1 8 16 -10 15 192 -1 212 -8
11 -8 13 2 7 8 -5 12 0 12 16 0 13 -6 30 -12 37 -10 11 -10 13 0 7 8 -5 12 0
12 14 0 14 -4 19 -12 14 -10 -6 -10 -5 -1 7 15 18 14 79 -1 98 -8 11 -8 13 2
7 8 -5 12 0 12 16 0 13 -6 30 -12 37 -9 10 -9 12 -1 7 16 -9 15 133 -1 153 -8
11 -8 13 1 8 16 -10 15 192 -1 212 -8 11 -8 13 2 7 8 -5 12 0 12 16 0 13 -6
30 -12 37 -10 11 -10 13 0 7 8 -5 12 0 12 14 0 14 -4 19 -12 14 -10 -6 -10 -5
-1 7 15 18 14 79 -1 98 -8 11 -8 13 2 7 8 -5 12 0 12 16 0 13 -6 30 -12 37
-11 11 -10 12 0 7 10 -6 12 3 10 43 l-3 51 -1748 0 c-1319 0 -1746 -3 -1741
-12 5 -7 3 -8 -7 -2 -20 12 -58 13 -56 1z m47 -3 c0 -8 -19 -13 -24 -6 -3 5 1
9 9 9 8 0 15 -2 15 -3z m-1515 -5723 c3 -5 2 -12 -3 -15 -5 -3 -9 1 -9 9 0 17
3 19 12 6z"/>
<path d="M1885 1170 c-5 -8 42 -7 49 1 3 3 -6 5 -20 5 -14 0 -27 -3 -29 -6z"/>
</g>
</svg>
